<svg xmlns="http://www.w3.org/2000/svg" width="500" height="500" viewBox="0 0 500 500"><g transform="translate(40,260)translate(228.5,50.5)rotate(0)translate(-228.5,-50.5)" opacity="1"><path transform="translate(0,0)rotate(0)" d="M19.69 84L10.92 84L10.92 30.45L-0.03 30.45L-0.03 22.64L30.65 22.64L30.65 30.45L19.69 30.45L19.69 84ZM48.69 35.79L44.31 62.09L53.07 62.09L48.69 35.79ZM39.92 84L31.16 84L44.31 22.64L53.07 22.64L66.22 84L57.46 84L54.17 68.66L43.21 68.66L39.92 84ZM87.14 84.62L87.14 84.62L87.14 84.62Q78.86 84.62 74.49 79.75L74.49 79.75L74.49 79.75Q70.13 74.89 69.61 66.47L69.61 66.47L78.38 64.28L78.38 64.28Q79.03 77.43 87.14 77.43L87.14 77.43L87.14 77.43Q93.72 77.43 93.72 70.85L93.72 70.85L93.72 70.85Q93.72 68.90 93.19 67.24L93.19 67.24L93.19 67.24Q92.66 65.58 91.56 64.19L91.56 64.19L91.56 64.19Q90.46 62.80 89.57 61.97L89.57 61.97L89.57 61.97Q88.68 61.13 87.14 59.89L87.14 59.89L76.19 51.13L76.19 51.13Q73.17 48.77 71.38 45.12L71.38 45.12L71.38 45.12Q69.58 41.47 69.58 36.82L69.58 36.82L69.58 36.82Q69.58 30.04 73.79 26.03L73.79 26.03L73.79 26.03Q78.00 22.02 84.95 22.02L84.95 22.02L84.95 22.02Q92.42 22.02 96.82 25.67L96.82 25.67L96.82 25.67Q101.22 29.32 102.24 35.99L102.24 35.99L102.24 35.99Q102.35 36.71 102.48 37.98L102.48 37.98L93.72 40.17L93.72 40.17Q93.68 39.59 93.55 38.43L93.55 38.43L93.55 38.43Q92.96 34.25 90.93 31.73L90.93 31.73L90.93 31.73Q88.89 29.21 84.95 29.21L84.95 29.21L84.95 29.21Q81.80 29.21 80.09 30.98L80.09 30.98L80.09 30.98Q78.38 32.74 78.38 35.89L78.38 35.89L78.38 35.89Q78.38 41.06 82.76 44.55L82.76 44.55L93.72 53.32L93.72 53.32Q102.48 60.41 102.48 70.27L102.48 70.27L102.48 70.27Q102.48 77.01 98.32 80.82L98.32 80.82L98.32 80.82Q94.16 84.62 87.14 84.62ZM117.65 84L108.89 84L108.89 22.64L117.65 22.64L117.65 48.94L130.80 22.64L141.76 22.64L128.57 46.75L143.95 84L132.99 84L122.03 55.51L117.65 64.28L117.65 84ZM284.13 84L275.37 84L275.37 22.64L287.49 22.64L296.18 69.62L304.88 22.64L317.00 22.64L317.00 84L308.24 84L308.24 35.58L299.47 84L292.90 84L284.13 35.58L284.13 84ZM349.87 84L325.77 84L325.77 22.64L349.87 22.64L349.87 29.21L334.53 29.21L334.53 48.94L345.49 48.94L345.49 55.51L334.53 55.51L334.53 77.43L349.87 77.43L349.87 84ZM371.07 84.62L371.07 84.62L371.07 84.62Q366.45 84.62 363.14 83.21L363.14 83.21L363.14 83.21Q359.84 81.81 357.89 79.10L357.89 79.10L357.89 79.10Q355.94 76.40 355.04 72.75L355.04 72.75L355.04 72.75Q354.15 69.11 354.15 64.28L354.15 64.28L354.15 42.02L354.15 42.02Q354.15 37.19 355.04 33.60L355.04 33.60L355.04 33.60Q355.94 30.00 357.89 27.35L357.89 27.35L357.89 27.35Q359.84 24.69 363.14 23.36L363.14 23.36L363.14 23.36Q366.45 22.02 371.07 22.02L371.07 22.02L371.07 22.02Q380.04 22.02 384.01 27.16L384.01 27.16L384.01 27.16Q387.98 32.30 387.98 42.02L387.98 42.02L387.98 64.28L387.98 64.28Q387.98 69.04 387.08 72.68L387.08 72.68L387.08 72.68Q386.17 76.33 384.22 79.05L384.22 79.05L384.22 79.05Q382.27 81.77 378.96 83.20L378.96 83.20L378.96 83.20Q375.66 84.62 371.07 84.62ZM364.68 74.65L364.68 74.65L364.68 74.65Q366.45 77.43 371.07 77.43L371.07 77.43L371.07 77.43Q375.69 77.43 377.46 74.65L377.46 74.65L377.46 74.65Q379.22 71.88 379.22 66.47L379.22 66.47L379.22 39.83L379.22 39.83Q379.22 34.49 377.47 31.85L377.47 31.85L377.47 31.85Q375.73 29.21 371.07 29.21L371.07 29.21L371.07 29.21Q366.41 29.21 364.67 31.85L364.67 31.85L364.67 31.85Q362.92 34.49 362.92 39.83L362.92 39.83L362.92 66.47L362.92 66.47Q362.92 71.88 364.68 74.65ZM411.37 84L402.61 84L391.65 22.64L400.41 22.64L404.80 51.13L407.02 68.66L409.18 51.13L413.56 22.64L422.33 22.64L426.71 51.13L428.87 68.66L431.09 51.13L435.48 22.64L444.24 22.64L433.29 84L424.52 84L420.14 55.51L417.95 37.98L415.75 55.51L411.37 84Z" fill="#181718"/></g><g transform="translate(149,155)translate(101,95)rotate(0)translate(-101,-95) scale(1.2503481786388535,1.2503481786388535)" opacity="1"><defs class="defs"/><path fill="#0A0A0A" d="M158.05,54.794h-31.89V3.63c0-1.402-1.053-2.805-2.453-3.504c-1.401-0.352-3.153,0-3.854,1.4L99.525,30.263&#10;&#9;H61.326L41.351,1.528c-0.699-1.4-2.451-1.752-3.854-1.4c-1.401,0.351-2.453,1.752-2.453,3.504v51.164H3.504&#10;&#9;C1.4,54.794,0,56.198,0,58.3c0,2.104,1.4,3.504,3.504,3.504h31.541v7.008H6.658c-2.102,0-3.504,1.402-3.504,3.506&#10;&#9;c0,2.104,1.402,3.505,3.504,3.505h28.387V89.84c0,1.402,0.701,2.453,2.103,3.154l42.054,21.024c0.35,0.353,0.701,0.353,1.4,0.353&#10;&#9;c0.7,0,1.051,0,1.401-0.353l42.054-21.024c1.051-0.701,2.104-1.752,2.104-3.154V76.173h27.687c2.102,0,3.504-1.402,3.504-3.506&#10;&#9;c0-2.103-1.402-3.504-3.504-3.504H126.16v-7.359h31.891c2.103,0,3.505-1.4,3.505-3.504C161.554,56.198,159.802,54.794,158.05,54.794&#10;&#9;z M42.052,14.844L56.421,35.87c0.701,1.053,1.752,1.401,2.804,1.401h42.053c1.053,0,2.104-0.701,2.805-1.401L118.8,14.844v39.95&#10;&#9;H98.474c-0.351,0-0.351,0-0.701,0c-1.051,0-1.754,0.351-2.453,1.052L80.601,70.915l-14.72-14.718&#10;&#9;c-0.7-1.053-1.752-1.402-2.803-1.402H42.052V14.844z M119.152,69.163h-14.369c-2.104,0-3.506,1.401-3.506,3.504&#10;&#9;c0,2.104,1.402,3.506,3.506,3.506h14.369v11.563L80.601,107.01l-38.55-19.273V75.821h14.369c2.104,0,3.504-1.399,3.504-3.504&#10;&#9;c0-2.104-1.399-3.506-3.504-3.506H42.052v-7.008h19.625l16.472,16.471c0.701,0.701,1.754,1.052,2.453,1.052&#10;&#9;c0.7,0,1.752-0.351,2.453-1.052l16.471-16.471h19.627V69.163z M124.408,104.208c-1.053-0.701-2.453-0.701-3.506,0l-40.301,19.625&#10;&#9;l-40.65-19.978c-1.05-0.698-2.453-0.35-3.505,0c-1.049,0.701-1.752,1.754-1.752,2.806v42.053c0,1.051,0.703,2.451,1.752,2.803&#10;&#9;c0.701,0.353,1.053,0.701,1.752,0.701c0.703,0,1.053,0,1.402-0.35l41.002-19.625l40.651,19.975c0.351,0.35,1.052,0.35,1.402,0.35&#10;&#9;c0.699,0,1.4-0.35,1.752-0.698c1.049-0.703,1.752-1.754,1.752-2.806v-42.053C126.16,105.96,125.457,104.907,124.408,104.208z" class="color c1"/><polygon fill="#EF5950" points="42.052,143.456 42.052,112.618 73.242,128.036 " class="color c2"/><polygon fill="#EF5950" points="119.152,143.456 87.611,128.036 118.8,112.618 118.8,143.456 " class="color c2"/></g></svg>